<svg width="52" height="34" viewBox="0 0 52 34" fill="none" xmlns="http://www.w3.org/2000/svg">
<path d="M25.2543 27.8496C19.0822 27.8496 14.0531 22.9863 14.0531 17C14.0531 11.0137 19.0822 6.15039 25.2543 6.15039C31.4264 6.15039 36.4555 11.0137 36.4555 17C36.4555 22.9863 31.4264 27.8496 25.2543 27.8496V27.8496ZM50.8466 15.9453C44.2173 5.94531 35.2813 0.4375 25.7115 0.4375C16.1417 0.4375 7.20567 5.94531 0.576411 15.9453C0.150392 16.5898 0.150392 17.4102 0.576411 18.0547C7.20567 28.0547 16.1417 33.5625 25.7115 33.5625C35.2813 33.5625 44.2069 28.0547 50.8466 18.0547C51.2726 17.4102 51.2726 16.5898 50.8466 15.9453Z" fill="white"/>
</svg>
