<svg width="54" height="50" viewBox="0 0 54 50" fill="none" xmlns="http://www.w3.org/2000/svg">
<path d="M26.2542 18.1348C22.4201 18.1348 19.2925 21.2109 19.2925 25C19.2925 28.7793 22.4097 31.8652 26.2542 31.8652C30.0884 31.8652 33.216 28.7891 33.216 25C33.216 21.2207 30.0884 18.1348 26.2542 18.1348V18.1348Z" fill="white"/>
<path d="M26.2543 35.8496C20.0822 35.8496 15.0531 30.9863 15.0531 25C15.0531 19.0137 20.0822 14.1504 26.2543 14.1504C32.4264 14.1504 37.4555 19.0137 37.4555 25C37.4555 30.9863 32.4264 35.8496 26.2543 35.8496V35.8496ZM51.8466 23.9453C45.2173 13.9453 36.2813 8.4375 26.7115 8.4375C17.1417 8.4375 8.20567 13.9453 1.57641 23.9453C1.15039 24.5898 1.15039 25.4102 1.57641 26.0547C8.20567 36.0547 17.1417 41.5625 26.7115 41.5625C36.2813 41.5625 45.2069 36.0547 51.8466 26.0547C52.2726 25.4102 52.2726 24.5898 51.8466 23.9453Z" fill="white"/>
</svg>
