<svg width="53" height="50" viewBox="0 0 53 50" fill="none" xmlns="http://www.w3.org/2000/svg">
<path d="M26.5 25C28.793 25 31.0346 24.3585 32.9411 23.1567C34.8477 21.9549 36.3337 20.2467 37.2112 18.2481C38.0887 16.2495 38.3183 14.0504 37.871 11.9287C37.4236 9.80704 36.3194 7.85816 34.698 6.32852C33.0766 4.79889 31.0108 3.75719 28.7618 3.33517C26.5129 2.91314 24.1817 3.12974 22.0633 3.95757C19.9448 4.78541 18.1341 6.18729 16.8601 7.98596C15.5862 9.78462 14.9062 11.8993 14.9062 14.0625C14.9062 16.9633 16.1277 19.7453 18.302 21.7965C20.4762 23.8477 23.4251 25 26.5 25ZM26.5 6.25C28.1379 6.25 29.739 6.7082 31.1008 7.56665C32.4627 8.4251 33.5241 9.64524 34.1509 11.0728C34.7777 12.5003 34.9417 14.0712 34.6221 15.5866C34.3026 17.1021 33.5139 18.4942 32.3557 19.5868C31.1976 20.6794 29.722 21.4234 28.1156 21.7249C26.5092 22.0263 24.8441 21.8716 23.3309 21.2803C21.8177 20.689 20.5243 19.6877 19.6144 18.4029C18.7044 17.1181 18.2188 15.6077 18.2188 14.0625C18.2188 11.9905 19.0912 10.0034 20.6443 8.53823C22.1973 7.07311 24.3037 6.25 26.5 6.25V6.25Z" fill="white"/>
<path d="M28.1562 28.125H24.8438C20.0118 28.125 15.3778 29.9358 11.9611 33.1591C8.54447 36.3824 6.625 40.7541 6.625 45.3125C6.625 45.7269 6.7995 46.1243 7.1101 46.4174C7.42071 46.7104 7.84199 46.875 8.28125 46.875H44.7188C45.158 46.875 45.5793 46.7104 45.8899 46.4174C46.2005 46.1243 46.375 45.7269 46.375 45.3125C46.375 40.7541 44.4555 36.3824 41.0389 33.1591C37.6222 29.9358 32.9882 28.125 28.1562 28.125ZM10.0369 43.75C10.4441 40.3135 12.1793 37.139 14.9107 34.8332C17.6421 32.5273 21.1784 31.2516 24.8438 31.25H28.1562C31.8216 31.2516 35.3579 32.5273 38.0893 34.8332C40.8207 37.139 42.5559 40.3135 42.9631 43.75H10.0369Z" fill="white"/>
</svg>
